The Bridge on the River Kwai *1957*[BluRay][1080p][ENG, POL]

General information:
Country: UK, USA 
Release: 2 October 1957
Genre: Adventure, Drama, War 
Director: David Lean
Screenplay: Carl Foreman
Original Music: Malcolm Arnold 
Cinematography by: Jack Hildyard
Duration: 2h 42mn
Language: English, Polish 
Subtitles: English, Polish 
Rating: 7.8/10 - 6068 votes 

Cast:
William Holden  ...  Shears  
Alec Guinness  ...  Col. Nicholson  
Jack Hawkins  ...  Maj. Warden  
Sessue Hayakawa  ...  Col. Saito  
James Donald  ...  Maj. Clipton  
Geoffrey Horne  ...  Lt, Joyce  
André Morell  ...  Col. Green (as Andre Morell)  
Peter Williams  ...  Capt. Reeves  
John Boxer  ...  Maj. Hughes  
Percy Herbert  ...  Grogan  
Harold Goodwin  ...  Baker  
Ann Sears  ...  Nurse  
Heihachirô Ôkawa  ...  Capt. Kanematsu (as Henry Okawa)  
Keiichirô Katsumoto  ...  Lt. Miura (as K. Katsumoto)  
M.R.B. Chakrabandhu  ...  Col. Broome Yai  

Plot:
After settling his differences with a Japanese PoW camp commander, acolonel co-operates to oversee his men's construction of a railway bridge for their captors - while oblivious to a plan by the Allies to destroy it. 

Specifications:
General
Format                           : Matroska
Overall bit rate                 : 6 207 Kbps

Video
Format                           : AVC
Format/Info                      : Advanced Video Codec
Format profile                   : High@L4.0
Format settings, CABAC           : Yes
Format settings, ReFrames        : 3 frames
Muxing mode                      : Container profile=Unknown@4.0
Codec ID                         : V_MPEG4/ISO/AVC
Bit rate                         : 4 273 Kbps
Width                            : 1 920 pixels
Height                           : 1 080 pixels
Display aspect ratio             : 16:9
Frame rate                       : 23.976 fps

Audio 1
Format                           : DTS
Format/Info                      : Digital Theater Systems
Codec ID                         : A_DTS
Bit rate mode                    : Constant
Bit rate                         : 1 510 Kbps
Channel(s)                       : 6 channels
Channel positions                : Front: L C R, Side: L R, LFE
Sampling rate                    : 48.0 KHz
Bit depth                        : 24 bits
Stream size                      : 1.71 GiB (24%)
Title                            : English

Audio 2
Format                           : AC-3
Format/Info                      : Audio Coding 3
Mode extension                   : CM (complete main)
Codec ID                         : A_AC3
Bit rate mode                    : Constant
Bit rate                         : 448 Kbps
Channel(s)                       : 6 channels
Channel positions                : Front: L C R, Side: L R, LFE
Sampling rate                    : 48.0 KHz
Stream size                      : 519 MiB (7%)
Title                            : Polish
Language                         : Polish

Text 1
Format                           : UTF-8
Codec ID                         : S_TEXT/UTF8
Codec ID/Info                    : UTF-8 Plain Text
Title                            : Polish
Language                         : Polish

Text 2
Format                           : UTF-8
Codec ID                         : S_TEXT/UTF8
Codec ID/Info                    : UTF-8 Plain Text
Title                            : English
